<?xml version="1.0" standalone="no"?>
        <!DOCTYPE svg PUBLIC "-//W3C//DTD SVG 1.1//EN" 
        "http://www.w3.org/Graphics/SVG/1.1/DTD/svg11.dtd">  <svg xmlns="http://www.w3.org/2000/svg" xmlns:xlink="http://www.w3.org/1999/xlink" width="40" zoomAndPan="magnify" viewBox="0 0 30 30.000001" height="40" preserveAspectRatio="xMidYMid meet" version="1.0"><defs><clipPath id="id1"><path d="M 13 9.65625 L 28 9.65625 L 28 19.09375 L 13 19.09375 Z M 13 9.65625 " clip-rule="nonzero"/></clipPath><clipPath id="id2"><path d="M 2.042969 12 L 5 12 L 5 16 L 2.042969 16 Z M 2.042969 12 " clip-rule="nonzero"/></clipPath><clipPath id="id3"><path d="M 3 9.65625 L 10 9.65625 L 10 14 L 3 14 Z M 3 9.65625 " clip-rule="nonzero"/></clipPath></defs><g clip-path="url(#id1)"><path fill="rgb(37.249756%, 38.819885%, 40.779114%)" d="M 13.980469 13.96875 L 13.980469 16.882812 L 13.019531 16.882812 L 13.019531 9.683594 L 15.566406 9.683594 C 16.179688 9.671875 16.769531 9.894531 17.214844 10.308594 C 17.660156 10.695312 17.910156 11.25 17.902344 11.828125 C 17.914062 12.410156 17.664062 12.96875 17.214844 13.355469 C 16.765625 13.765625 16.21875 13.96875 15.566406 13.96875 Z M 13.980469 10.570312 L 13.980469 13.085938 L 15.589844 13.085938 C 15.945312 13.09375 16.289062 12.960938 16.539062 12.710938 C 17.042969 12.242188 17.054688 11.464844 16.5625 10.976562 C 16.554688 10.96875 16.546875 10.960938 16.539062 10.953125 C 16.292969 10.699219 15.945312 10.5625 15.589844 10.570312 Z M 20.113281 11.796875 C 20.824219 11.796875 21.382812 11.980469 21.792969 12.34375 C 22.203125 12.710938 22.40625 13.210938 22.40625 13.847656 L 22.40625 16.886719 L 21.492188 16.886719 L 21.492188 16.199219 L 21.449219 16.199219 C 21.050781 16.765625 20.523438 17.046875 19.863281 17.046875 C 19.300781 17.046875 18.828125 16.886719 18.449219 16.5625 C 18.082031 16.265625 17.875 15.820312 17.882812 15.355469 C 17.882812 14.847656 18.082031 14.441406 18.480469 14.140625 C 18.882812 13.839844 19.414062 13.6875 20.082031 13.6875 C 20.652344 13.6875 21.121094 13.789062 21.492188 13.988281 L 21.492188 13.777344 C 21.492188 13.460938 21.347656 13.160156 21.09375 12.957031 C 20.839844 12.738281 20.507812 12.617188 20.167969 12.621094 C 19.632812 12.621094 19.207031 12.839844 18.894531 13.273438 L 18.050781 12.761719 C 18.511719 12.117188 19.203125 11.796875 20.113281 11.796875 Z M 18.871094 15.375 C 18.871094 15.617188 18.988281 15.839844 19.1875 15.980469 C 19.402344 16.140625 19.664062 16.226562 19.933594 16.222656 C 20.339844 16.21875 20.726562 16.0625 21.015625 15.789062 C 21.332031 15.5 21.492188 15.160156 21.492188 14.773438 C 21.191406 14.542969 20.773438 14.425781 20.238281 14.425781 C 19.847656 14.425781 19.523438 14.515625 19.261719 14.699219 C 19 14.886719 18.871094 15.109375 18.871094 15.375 Z M 27.675781 11.957031 L 24.472656 19.058594 L 23.484375 19.058594 L 24.671875 16.574219 L 22.5625 11.957031 L 23.605469 11.957031 L 25.128906 15.496094 L 25.152344 15.496094 L 26.632812 11.957031 Z M 27.675781 11.957031 " fill-opacity="1" fill-rule="nonzero"/></g><path fill="rgb(25.878906%, 52.159119%, 95.689392%)" d="M 11.023438 14.175781 C 11.023438 13.890625 11 13.609375 10.949219 13.332031 L 6.902344 13.332031 L 6.902344 14.925781 L 9.222656 14.925781 C 9.125 15.441406 8.816406 15.894531 8.363281 16.183594 L 8.363281 17.21875 L 9.746094 17.21875 C 10.558594 16.5 11.023438 15.433594 11.023438 14.175781 Z M 11.023438 14.175781 " fill-opacity="1" fill-rule="nonzero"/><path fill="rgb(20.388794%, 65.879822%, 32.548523%)" d="M 6.902344 18.21875 C 8.0625 18.21875 9.035156 17.851562 9.746094 17.21875 L 8.363281 16.183594 C 7.980469 16.4375 7.484375 16.578125 6.902344 16.578125 C 5.785156 16.578125 4.832031 15.851562 4.492188 14.871094 L 3.070312 14.871094 L 3.070312 15.9375 C 3.796875 17.335938 5.28125 18.21875 6.902344 18.21875 Z M 6.902344 18.21875 " fill-opacity="1" fill-rule="nonzero"/><g clip-path="url(#id2)"><path fill="rgb(98.429871%, 73.728943%, 1.568604%)" d="M 4.496094 14.871094 C 4.3125 14.359375 4.3125 13.800781 4.496094 13.289062 L 4.496094 12.222656 L 3.070312 12.222656 C 2.460938 13.390625 2.460938 14.769531 3.070312 15.9375 Z M 4.496094 14.871094 " fill-opacity="1" fill-rule="nonzero"/></g><g clip-path="url(#id3)"><path fill="rgb(91.758728%, 26.269531%, 20.779419%)" d="M 6.902344 11.582031 C 7.515625 11.574219 8.105469 11.792969 8.550781 12.203125 L 9.773438 11.019531 C 8.996094 10.320312 7.96875 9.933594 6.902344 9.941406 C 5.28125 9.941406 3.796875 10.824219 3.070312 12.222656 L 4.496094 13.289062 C 4.832031 12.308594 5.785156 11.582031 6.902344 11.582031 Z M 6.902344 11.582031 " fill-opacity="1" fill-rule="nonzero"/></g></svg>  